<mxfile host="app.diagrams.net" modified="2020-10-23T09:48:23.759Z" agent="5.0 (Windows NT 10.0; Win64; x64) AppleWebKit/537.36 (KHTML, like Gecko) Chrome/86.0.4240.111 Safari/537.36" etag="3f7F_EixukFQdXZkOtY5" version="13.8.1" type="github">
  <diagram id="X4i1Qr-Yrb4GbfQ56hf_" name="Page-1">
    <mxGraphModel dx="2062" dy="1066" grid="1" gridSize="10" guides="1" tooltips="1" connect="1" arrows="1" fold="1" page="1" pageScale="1" pageWidth="827" pageHeight="1169" math="0" shadow="0">
      <root>
        <mxCell id="0" />
        <mxCell id="1" parent="0" />
        <mxCell id="_FZoLv3y9S-TGG0yO3Qz-8" style="edgeStyle=orthogonalEdgeStyle;rounded=0;orthogonalLoop=1;jettySize=auto;html=1;entryX=0;entryY=0.5;entryDx=0;entryDy=0;fillColor=#f5f5f5;strokeColor=#666666;" edge="1" parent="1" source="_FZoLv3y9S-TGG0yO3Qz-5" target="_FZoLv3y9S-TGG0yO3Qz-6">
          <mxGeometry relative="1" as="geometry" />
        </mxCell>
        <mxCell id="_FZoLv3y9S-TGG0yO3Qz-5" value="用户业务请求&lt;br&gt;（请求带上验证码token）" style="shape=datastore;whiteSpace=wrap;html=1;fillColor=#f5f5f5;strokeColor=#666666;fontColor=#333333;" vertex="1" parent="1">
          <mxGeometry x="100" y="440" width="90" height="120" as="geometry" />
        </mxCell>
        <mxCell id="_FZoLv3y9S-TGG0yO3Qz-9" style="edgeStyle=orthogonalEdgeStyle;rounded=0;orthogonalLoop=1;jettySize=auto;html=1;entryX=0;entryY=0.5;entryDx=0;entryDy=0;fillColor=#f5f5f5;strokeColor=#666666;" edge="1" parent="1" source="_FZoLv3y9S-TGG0yO3Qz-6" target="_FZoLv3y9S-TGG0yO3Qz-7">
          <mxGeometry relative="1" as="geometry" />
        </mxCell>
        <mxCell id="_FZoLv3y9S-TGG0yO3Qz-6" value="业务系统(获取token,调用验证码接口)" style="shape=datastore;whiteSpace=wrap;html=1;fillColor=#f5f5f5;strokeColor=#666666;fontColor=#333333;" vertex="1" parent="1">
          <mxGeometry x="280" y="440" width="90" height="120" as="geometry" />
        </mxCell>
        <mxCell id="_FZoLv3y9S-TGG0yO3Qz-7" value="验证码服务（校验token有效性）" style="shape=datastore;whiteSpace=wrap;html=1;fillColor=#f5f5f5;strokeColor=#666666;fontColor=#333333;" vertex="1" parent="1">
          <mxGeometry x="440" y="440" width="90" height="120" as="geometry" />
        </mxCell>
      </root>
    </mxGraphModel>
  </diagram>
</mxfile>
